<?xml version="1.0" encoding="utf-8"?>
<!-- Generator: Adobe Illustrator 17.0.0, SVG Export Plug-In . SVG Version: 6.00 Build 0)  -->
<!DOCTYPE svg PUBLIC "-//W3C//DTD SVG 1.1//EN" "http://www.w3.org/Graphics/SVG/1.1/DTD/svg11.dtd">
<svg version="1.1" id="Layer_2" xmlns="http://www.w3.org/2000/svg" xmlns:xlink="http://www.w3.org/1999/xlink" x="0px" y="0px"
	 width="184px" height="184px" viewBox="0 0 184 184" enable-background="new 0 0 184 184" xml:space="preserve">
<g>
	<g>
		<path fill="#343534" d="M16.008,76.708v-1.799c-1.72,1.589-3.471,2.339-5.855,2.339c-5.101,0-9.99-3.718-9.99-10.914
			C0.163,61.356,3.272,55,10.485,55c4.557,0,7.696,2.878,8.964,6.237l-3.803,1.499c-0.362-1.02-1.479-4.168-5.191-4.168
			c-3.592,0-5.946,2.968-5.946,7.646c0,0.9,0.211,7.286,6.036,7.286c2.777,0,4.829-1.589,5.252-4.887h-5.312v-3.478h8.964v11.573
			H16.008z"/>
		<path fill="#343534" d="M33.09,55c6.489,0,10.201,5.277,10.201,11.004c0,4.797-2.626,11.244-10.292,11.244
			c-6.278,0-10.141-5.157-10.141-11.094C22.859,59.947,26.933,55,33.09,55z M33.12,73.56c3.169,0,6.157-2.429,6.157-7.226
			c0-3.778-1.992-7.706-6.217-7.706c-3.501,0-6.096,2.728-6.096,7.376C26.964,69.302,28.563,73.56,33.12,73.56z"/>
		<path fill="#343534" d="M56.035,55c6.489,0,10.201,5.277,10.201,11.004c0,4.797-2.626,11.244-10.292,11.244
			c-6.278,0-10.141-5.157-10.141-11.094C45.804,59.947,49.878,55,56.035,55z M56.065,73.56c3.169,0,6.157-2.429,6.157-7.226
			c0-3.778-1.992-7.706-6.217-7.706c-3.501,0-6.096,2.728-6.096,7.376C49.908,69.302,51.508,73.56,56.065,73.56z"/>
		<path fill="#343534" d="M77.742,55.54c5.04,0,9.748,3.178,9.748,10.764c0,6.776-3.712,10.404-9.99,10.404h-8.058V55.54H77.742z
			 M73.426,73.14h2.475c4.618,0,7.364-0.87,7.364-6.836c0-5.217-2.596-7.196-6.549-7.196h-3.29V73.14z"/>
		<path fill="#343534" d="M100.295,55.54c4.467,0,6.459,2.459,6.459,5.187c0,1.739-0.966,4.018-3.531,4.378
			c1.962,0.36,4.527,1.949,4.527,5.607c0,2.878-1.69,5.997-7.183,5.997h-9.809V55.54H100.295z M94.711,64.055h4.014
			c1.781,0,3.923-0.57,3.923-2.669c0-2.159-2.203-2.609-3.803-2.609h-4.135V64.055z M94.711,73.29h5.251
			c2.716,0,3.712-1.379,3.712-2.938c0-2.968-2.867-3.328-4.527-3.328h-4.436V73.29z"/>
		<path fill="#343534" d="M119.278,68.343v8.365h-3.954v-8.365l-7.123-12.803h4.527l4.618,8.755l4.648-8.755h4.467L119.278,68.343z"
			/>
	</g>
	<g>
		<path fill="#343534" d="M14.879,87.191c-0.664-1.079-2.203-3.148-5.553-3.148c-0.905,0-3.984,0.33-3.984,2.579
			c0,1.649,1.63,2.039,3.893,2.518l2.233,0.48c3.35,0.72,6.911,2.009,6.911,6.267c0,5.247-5.252,6.836-9.054,6.836
			c-3.561,0-7.424-1.259-9.326-4.527l3.35-2.309c0.936,1.379,2.686,3.178,6.61,3.178c2.324,0,4.105-0.959,4.105-2.789
			c0-1.739-1.419-2.129-4.105-2.728l-2.716-0.6c-2.716-0.6-6.097-1.739-6.097-5.877c0-3.748,3.048-6.596,8.421-6.596
			c1.901,0,5.644,0.3,8.601,4.288L14.879,87.191z"/>
		<path fill="#343534" d="M21.85,102.183V81.015h3.923v21.168H21.85z"/>
		<path fill="#343534" d="M29.884,102.183V81.015h4.014v17.57h8.451v3.598H29.884z"/>
		<path fill="#343534" d="M53.348,102.183h-5.372l-6.278-21.168h4.195l4.768,16.701l4.648-16.701h4.105L53.348,102.183z"/>
		<path fill="#343534" d="M63.437,102.183V81.015h15.151v3.538H67.36v4.977h10.292v3.418H67.36v5.667h11.982v3.568H63.437z"/>
		<path fill="#343534" d="M91.112,81.015c4.195,0,7.032,2.728,7.032,6.716c0,2.039-0.815,4.707-4.195,5.817l4.738,8.635H94.13
			l-4.195-7.856h-3.591v7.856H82.39V81.015H91.112z M86.344,91.029h3.078c2.867,0,4.678-0.839,4.678-3.328
			c0-2.279-1.569-3.268-4.135-3.268h-3.622V91.029z"/>
		<path fill="#343534" d="M115.015,87.191c-0.664-1.079-2.203-3.148-5.553-3.148c-0.905,0-3.984,0.33-3.984,2.579
			c0,1.649,1.63,2.039,3.893,2.518l2.233,0.48c3.35,0.72,6.911,2.009,6.911,6.267c0,5.247-5.251,6.836-9.054,6.836
			c-3.561,0-7.424-1.259-9.326-4.527l3.35-2.309c0.935,1.379,2.686,3.178,6.61,3.178c2.324,0,4.104-0.959,4.104-2.789
			c0-1.739-1.419-2.129-4.104-2.728l-2.716-0.6c-2.716-0.6-6.097-1.739-6.097-5.877c0-3.748,3.048-6.596,8.421-6.596
			c1.901,0,5.644,0.3,8.601,4.288L115.015,87.191z"/>
		<path fill="#343534" d="M131.132,84.583v17.6h-3.984v-17.6h-5.795v-3.568h15.664v3.568H131.132z"/>
		<path fill="#343534" d="M140.563,102.183V81.015h15.151v3.538h-11.227v4.977h10.292v3.418h-10.292v5.667h11.982v3.568H140.563z"/>
		<path fill="#343534" d="M159.487,102.183V81.015h3.923v21.168H159.487z"/>
		<path fill="#343534" d="M180.499,102.183l-9.326-14.842c0,0,0.241,14.452,0.241,14.842h-3.893V81.015h3.591l9.447,14.932
			c0,0-0.453-14.452-0.483-14.932H184v21.168H180.499z"/>
	</g>
	<g>
		<path fill="#F04F53" d="M18.826,117.071c-0.03,0.3-0.09,0.84-0.181,1.139c-0.151,0.63-0.815,3.028-2.264,4.827
			c0.664,0.69,1.117,0.93,2.113,0.93c0.121,0,0.392,0,0.664-0.06v2.998c-0.634,0.06-0.845,0.09-1.479,0.09
			c-2.203,0-3.018-0.54-3.893-1.199c-0.905,0.6-2.414,1.559-5.101,1.559c-3.652,0-6.76-2.069-6.76-5.967
			c0-3.298,2.414-4.827,4.618-6.296c-0.362-0.57-0.905-1.499-0.905-3.118c0-2.429,1.539-4.917,4.92-4.917
			c2.897,0,4.919,2.039,4.919,4.497c0,1.409-0.815,3.718-4.014,4.827c0.845,1.379,1.811,2.759,2.777,4.018
			c0.996-1.409,1.026-2.609,1.117-3.328H18.826z M8.172,117.79c-2.143,1.08-2.596,2.429-2.596,3.358c0,1.409,1.117,3.088,3.32,3.088
			c0.604,0,1.75-0.15,2.928-1.139L8.172,117.79z M12.307,111.464c0-0.959-0.724-1.589-1.66-1.589c-0.905,0-1.6,0.63-1.6,1.529
			c0,0.66,0.181,1.259,0.905,2.309C10.888,113.443,12.307,112.903,12.307,111.464z"/>
	</g>
	<g>
		<path fill="#343534" d="M37.227,106.292c4.406,0,7.575,2.699,7.575,7.046c0,3.838-2.233,6.926-7.787,6.926h-4.074v7.196h-3.984
			v-21.168H37.227z M32.942,117.026h3.501c2.837,0,4.255-1.319,4.255-3.808c0-3.418-2.777-3.538-4.708-3.538h-3.048V117.026z"/>
		<path fill="#343534" d="M58.888,127.46l-1.237-4.138h-7.998l-1.237,4.138h-4.286l7.213-21.168h4.527l7.274,21.168H58.888z
			 M53.666,110.1l-2.958,9.745h5.885L53.666,110.1z"/>
		<path fill="#343534" d="M74.612,106.292c4.195,0,7.032,2.728,7.032,6.716c0,2.039-0.815,4.707-4.195,5.817l4.738,8.635H77.63
			l-4.195-7.855h-3.591v7.855h-3.954v-21.168H74.612z M69.843,116.306h3.078c2.867,0,4.678-0.839,4.678-3.328
			c0-2.279-1.569-3.268-4.135-3.268h-3.622V116.306z"/>
		<path fill="#343534" d="M93.384,109.86v17.6H89.4v-17.6h-5.795v-3.568h15.664v3.568H93.384z"/>
		<path fill="#343534" d="M115.634,127.46l-9.326-14.842c0,0,0.242,14.452,0.242,14.842h-3.893v-21.168h3.592l9.446,14.932
			c0,0-0.452-14.452-0.483-14.932h3.923v21.168H115.634z"/>
		<path fill="#343534" d="M122.226,127.46v-21.168h15.151v3.538H126.15v4.977h10.292v3.418H126.15v5.667h11.982v3.568H122.226z"/>
		<path fill="#343534" d="M149.623,106.292c4.195,0,7.032,2.728,7.032,6.716c0,2.039-0.815,4.707-4.195,5.817l4.738,8.635h-4.557
			l-4.195-7.855h-3.592v7.855H140.9v-21.168H149.623z M144.854,116.306h3.078c2.867,0,4.678-0.839,4.678-3.328
			c0-2.279-1.569-3.268-4.135-3.268h-3.622V116.306z"/>
		<path fill="#343534" d="M172.966,112.469c-0.664-1.079-2.203-3.148-5.553-3.148c-0.905,0-3.984,0.33-3.984,2.579
			c0,1.649,1.63,2.039,3.893,2.519l2.233,0.48c3.35,0.72,6.911,2.009,6.911,6.267c0,5.247-5.251,6.836-9.054,6.836
			c-3.561,0-7.424-1.259-9.326-4.528l3.35-2.309c0.935,1.379,2.686,3.178,6.61,3.178c2.324,0,4.104-0.959,4.104-2.789
			c0-1.739-1.419-2.129-4.104-2.728l-2.716-0.6c-2.716-0.599-6.097-1.739-6.097-5.877c0-3.748,3.048-6.596,8.421-6.596
			c1.901,0,5.644,0.3,8.601,4.288L172.966,112.469z"/>
	</g>
</g>
</svg>
